<svg width="18" height="18" viewBox="0 0 18 18" fill="none" xmlns="http://www.w3.org/2000/svg">
<path d="M12.3928 2.97129V1.857C12.3928 1.56415 12.15 1.32129 11.8571 1.32129C11.5642 1.32129 11.3214 1.56415 11.3214 1.857V2.92843H6.67853V1.857C6.67853 1.56415 6.43567 1.32129 6.14281 1.32129C5.84995 1.32129 5.6071 1.56415 5.6071 1.857V2.97129C3.67853 3.14986 2.74281 4.29986 2.59995 6.007C2.58567 6.21415 2.7571 6.38557 2.9571 6.38557H15.0428C15.25 6.38557 15.4214 6.207 15.4 6.007C15.2571 4.29986 14.3214 3.14986 12.3928 2.97129Z" fill="#1C1B20"/>
<path d="M14.7146 7.45703H3.28606C2.89321 7.45703 2.57178 7.77846 2.57178 8.17132V12.5713C2.57178 14.7142 3.64321 16.1427 6.14321 16.1427H11.8575C14.3575 16.1427 15.4289 14.7142 15.4289 12.5713V8.17132C15.4289 7.77846 15.1075 7.45703 14.7146 7.45703ZM7.00749 13.4356C6.93606 13.4999 6.85749 13.5499 6.77178 13.5856C6.68606 13.6213 6.59321 13.6427 6.50035 13.6427C6.40749 13.6427 6.31463 13.6213 6.22892 13.5856C6.14321 13.5499 6.06463 13.4999 5.99321 13.4356C5.86463 13.2999 5.78606 13.1142 5.78606 12.9285C5.78606 12.7427 5.86463 12.557 5.99321 12.4213C6.06463 12.357 6.14321 12.307 6.22892 12.2713C6.40035 12.1999 6.60035 12.1999 6.77178 12.2713C6.85749 12.307 6.93606 12.357 7.00749 12.4213C7.13606 12.557 7.21463 12.7427 7.21463 12.9285C7.21463 13.1142 7.13606 13.2999 7.00749 13.4356ZM7.15749 10.6999C7.12178 10.7856 7.07178 10.8642 7.00749 10.9356C6.93606 10.9999 6.85749 11.0499 6.77178 11.0856C6.68606 11.1213 6.59321 11.1427 6.50035 11.1427C6.40749 11.1427 6.31463 11.1213 6.22892 11.0856C6.14321 11.0499 6.06463 10.9999 5.99321 10.9356C5.92892 10.8642 5.87892 10.7856 5.84321 10.6999C5.80749 10.6142 5.78606 10.5213 5.78606 10.4285C5.78606 10.3356 5.80749 10.2427 5.84321 10.157C5.87892 10.0713 5.92892 9.99275 5.99321 9.92132C6.06463 9.85703 6.14321 9.80703 6.22892 9.77132C6.40035 9.69989 6.60035 9.69989 6.77178 9.77132C6.85749 9.80703 6.93606 9.85703 7.00749 9.92132C7.07178 9.99275 7.12178 10.0713 7.15749 10.157C7.19321 10.2427 7.21463 10.3356 7.21463 10.4285C7.21463 10.5213 7.19321 10.6142 7.15749 10.6999ZM9.50749 10.9356C9.43606 10.9999 9.35749 11.0499 9.27178 11.0856C9.18606 11.1213 9.09321 11.1427 9.00035 11.1427C8.90749 11.1427 8.81463 11.1213 8.72892 11.0856C8.64321 11.0499 8.56463 10.9999 8.49321 10.9356C8.36463 10.7999 8.28606 10.6142 8.28606 10.4285C8.28606 10.2427 8.36463 10.057 8.49321 9.92132C8.56463 9.85703 8.64321 9.80703 8.72892 9.77132C8.90035 9.69275 9.10035 9.69275 9.27178 9.77132C9.35749 9.80703 9.43606 9.85703 9.50749 9.92132C9.63606 10.057 9.71463 10.2427 9.71463 10.4285C9.71463 10.6142 9.63606 10.7999 9.50749 10.9356Z" fill="#292D32"/>
</svg>
