<svg width="28" height="28" viewBox="0 0 28 28" fill="none" xmlns="http://www.w3.org/2000/svg">
<g id="tag-right">
<g id="vuesax/linear/tag-right">
<g id="Group">
<path id="Vector" d="M23.0768 24.3833L9.73017 24.3833C8.93684 24.3833 7.94516 23.835 7.52516 23.1583L2.6485 15.365C2.18183 14.6066 2.22847 13.4166 2.76514 12.705L8.80846 4.65497C9.24013 4.0833 10.1735 3.61664 10.8852 3.61664L23.0768 3.61663C25.1185 3.61663 26.3551 5.85663 25.2818 7.59497L22.0502 12.7633C21.6185 13.4516 21.6185 14.5716 22.0502 15.26L25.2818 20.4283C26.3551 22.1433 25.1068 24.3833 23.0768 24.3833Z" fill="#1C1B20"/>
<path id="Line" d="M18.66 10.5L10.5 18.66" stroke="white" stroke-width="1.5" stroke-linecap="round" stroke-linejoin="round"/>
<path id="Line_2" d="M18.66 18.66L10.5 10.5" stroke="white" stroke-width="1.5" stroke-linecap="round" stroke-linejoin="round"/>
</g>
</g>
</g>
</svg>
