<svg width="24" height="25" viewBox="0 0 24 25" fill="none" xmlns="http://www.w3.org/2000/svg">
<path d="M18.5 13.1499V16.8499C18.5 19.9699 15.59 22.4999 12 22.4999C8.41 22.4999 5.5 19.9699 5.5 16.8499V13.1499C5.5 16.2699 8.41 18.4999 12 18.4999C15.59 18.4999 18.5 16.2699 18.5 13.1499Z" stroke="#1C1B20" stroke-width="1.5" stroke-linecap="round" stroke-linejoin="round"/>
<path d="M18.5 8.15C18.5 9.06 18.25 9.9 17.81 10.62C16.74 12.38 14.54 13.5 12 13.5C9.46 13.5 7.26 12.38 6.19 10.62C5.75 9.9 5.5 9.06 5.5 8.15C5.5 6.59 6.22999 5.18 7.39999 4.16C8.57999 3.13 10.2 2.5 12 2.5C13.8 2.5 15.42 3.13 16.6 4.15C17.77 5.18 18.5 6.59 18.5 8.15Z" stroke="#1C1B20" stroke-width="1.5" stroke-linecap="round" stroke-linejoin="round"/>
<path d="M18.5 8.15V13.15C18.5 16.27 15.59 18.5 12 18.5C8.41 18.5 5.5 16.27 5.5 13.15V8.15C5.5 5.03 8.41 2.5 12 2.5C13.8 2.5 15.42 3.13 16.6 4.15C17.77 5.18 18.5 6.59 18.5 8.15Z" stroke="#1C1B20" stroke-width="1.5" stroke-linecap="round" stroke-linejoin="round"/>
</svg>
