<svg width="354" height="302" viewBox="0 0 354 302" fill="none" xmlns="http://www.w3.org/2000/svg">
<path d="M154.521 61.985C162.522 56.7994 206.529 29.8348 243.534 45.3913C263.537 54.2067 274.038 65.0962 274.038 65.0962C287.54 79.0971 293.041 96.2094 302.043 94.6537C304.043 94.1352 306.543 93.098 307.543 91.0238C312.544 82.2084 294.541 60.4293 279.039 47.4655C278.039 46.4284 275.039 44.3542 272.038 42.28C255.536 30.3533 216.53 6.49998 165.023 14.2782C131.018 19.4638 106.014 36.5759 91.0117 49.0212C98.5128 50.0583 106.014 51.6139 113.515 52.651C120.016 46.947 128.517 40.7243 139.519 35.5388C167.023 22.0565 193.527 23.6122 206.529 25.6864C206.529 25.6864 157.521 30.8719 125.517 55.2438L154.521 61.985Z" fill="#164063"/>
<path d="M155.025 6.49985C168.027 4.42565 188.03 2.86998 211.534 7.53694C224.536 10.1297 260.541 17.3894 292.045 48.5025C302.547 58.8735 319.549 77.0228 326.55 105.025C331.551 125.248 330.551 147.546 342.053 151.694C342.553 151.694 347.554 153.768 350.554 151.176C361.556 142.36 345.553 87.3939 312.048 50.5767C285.544 21.5378 254.54 10.1297 240.038 5.98127C217.535 -0.759899 198.032 -0.24138 191.031 0.277172C176.028 0.795723 164.027 3.38854 155.025 6.49985Z" fill="#164063"/>
<path d="M70.0105 80.6526C75.0112 81.6898 79.5119 82.7269 84.5126 83.764C78.5117 94.135 71.5107 110.729 69.5104 130.952C64.5097 181.252 92.0137 218.587 99.5148 227.921C99.5148 227.921 87.013 211.328 81.0121 185.4C71.0106 141.323 87.5131 103.469 95.5142 86.8753C105.016 89.9866 114.017 92.5794 123.518 95.6907C117.017 108.136 101.515 141.323 110.516 180.215C123.018 234.662 174.026 270.443 214.032 270.961C252.037 271.48 273.54 269.405 286.542 263.183C286.542 263.183 210.031 324.372 120.018 273.035C110.016 265.776 74.5112 237.774 61.5093 185.4C48.5074 134.064 65.0098 92.5793 70.0105 80.6526Z" fill="#164063"/>
<path d="M259.04 189.03C266.041 191.623 265.541 191.104 266.041 191.623C298.546 204.587 317.048 222.736 317.048 222.736C329.05 234.663 337.551 247.626 340.552 257.479C342.052 261.109 343.052 265.776 343.052 265.776C345.552 274.073 346.553 280.814 347.553 285.481C351.053 295.333 350.553 297.926 349.553 298.444C348.053 299.482 345.552 297.926 329.55 284.444C321.549 278.221 317.548 275.11 316.548 273.554C314.548 270.443 311.547 265.257 305.046 257.479C283.543 227.922 292.545 223.255 278.543 212.883C268.041 205.105 240.537 192.141 232.536 190.067C225.035 187.993 232.036 190.067 232.036 190.067L227.535 189.549C229.535 187.474 232.536 185.4 237.537 183.845C241.537 182.289 244.538 183.326 259.04 189.03Z" fill="#FA7D08"/>
<path d="M20.502 73.3926C20.502 72.8741 23.5024 72.3555 23.5024 72.3555C30.5034 70.7999 41.0049 69.2442 53.5068 68.2071C61.5079 67.6885 87.0117 66.1329 119.516 72.3555C135.519 75.4668 144.02 77.0224 150.021 83.245C154.522 87.3935 160.022 95.1718 169.024 107.617C176.525 117.988 177.025 120.062 183.526 128.878C195.528 145.471 201.528 153.768 207.029 156.361C221.531 164.139 233.533 157.916 243.535 169.325C246.035 171.917 247.035 174.51 248.035 176.584C248.035 176.584 237.034 174.51 209.53 184.363C209.53 184.363 201.528 187.992 178.025 176.584C170.524 171.917 165.523 172.436 162.023 173.473C156.522 175.547 150.021 183.326 148.521 182.288L148.021 181.77L148.521 182.288C148.521 182.288 147.521 181.77 146.02 181.77C142.52 179.177 139.019 176.584 135.519 173.473C129.018 167.769 123.517 161.546 119.516 156.361C119.516 156.361 113.516 139.767 114.016 133.545C114.016 133.545 130.518 154.287 145.02 155.842C159.522 157.398 165.023 159.472 167.023 152.212C170.524 140.286 157.522 123.174 148.021 110.728C140.019 100.876 136.019 95.6903 130.518 91.5419C123.517 85.8378 113.015 80.1338 91.0122 75.9854C53.5068 68.7256 21.002 74.9483 20.502 73.3926Z" fill="#FA7D08"/>
<path d="M4 76.5045C4 76.5045 42.0056 68.7262 77.5107 73.3932C112.516 78.5787 131.019 85.8384 141.52 101.395C152.022 116.951 180.026 152.213 161.023 155.843C142.02 159.991 119.017 138.731 115.516 133.545L114.016 130.952C114.016 130.952 111.516 145.99 121.517 157.917C131.519 169.844 148.021 181.252 148.021 181.252C148.021 181.252 161.523 167.251 172.525 172.955C183.526 178.659 198.028 189.03 219.532 180.215C241.035 171.399 252.036 176.585 252.036 176.585C252.036 176.585 250.036 157.399 230.533 149.62C211.03 141.842 212.03 149.102 199.529 127.841C187.527 107.099 169.024 85.3199 156.022 75.986C145.021 68.7262 134.019 66.652 111.016 62.5036C95.5134 59.9108 71.5099 55.7624 42.0055 62.5036C25.5031 66.652 12.5012 72.3561 4 76.5045Z" stroke="#164063" stroke-miterlimit="10"/>
<path d="M256.535 171.399C256.535 171.399 265.537 185.919 266.537 193.697C266.537 193.697 245.034 176.585 232.032 185.4L228.531 188.511C228.531 188.511 276.038 200.957 287.54 223.773C299.042 246.589 311.043 272.517 329.546 284.962C348.049 297.407 351.049 300 351.049 300C351.049 300 338.547 230.514 327.046 217.032C318.044 206.142 298.541 204.068 271.037 183.326C264.537 178.14 259.536 173.992 256.535 171.399Z" stroke="#164063" stroke-miterlimit="10"/>
</svg>
