<svg width="1228" height="302" viewBox="0 0 1228 302" fill="none" xmlns="http://www.w3.org/2000/svg">
<path d="M527.155 165.928C517.276 165.928 507.978 164.51 499.842 161.675C491.706 158.839 484.151 154.586 477.759 148.915C471.366 143.716 466.717 137.1 463.23 129.539C459.743 121.977 458 113.943 458 104.964C458 96.4574 459.743 87.9509 463.23 80.862C466.717 73.3006 471.366 67.1569 477.759 61.4858C484.151 56.2873 491.125 52.034 499.842 48.7259C508.559 45.8904 517.857 44 527.736 44C534.129 44 539.94 44.9452 546.332 46.3629C552.144 47.7807 557.955 50.1436 563.185 52.9792C568.416 55.8147 573.065 59.1229 576.551 62.9036L556.793 82.7523C553.887 80.3894 551.563 78.0265 548.657 76.1361C545.751 74.2458 542.264 72.8279 538.778 71.8828C535.291 70.9376 531.223 70.465 527.736 70.465C522.506 70.465 517.857 71.4102 513.208 72.8279C508.559 74.2457 505.072 76.6087 501.585 79.9168C498.098 82.7523 495.774 86.5331 494.03 90.7864C492.287 95.0397 491.125 99.7656 491.125 104.964C491.125 110.163 492.287 114.888 494.03 119.142C495.774 123.395 498.679 127.176 502.166 130.011C505.653 132.847 509.721 135.21 514.37 137.1C519.019 138.518 524.83 139.463 530.642 139.463C534.71 139.463 538.778 138.991 542.265 138.045C545.751 137.1 549.238 135.682 552.144 133.792C555.049 131.902 557.955 130.011 560.28 127.648L575.97 149.388C573.065 152.696 568.416 155.531 563.185 157.894C557.955 160.257 552.144 162.147 545.751 163.565C539.94 165.456 533.547 165.928 527.155 165.928Z" fill="#164063"/>
<path d="M642.219 165.928C631.759 165.928 622.461 164.038 614.325 159.784C606.189 155.531 599.797 150.333 595.147 143.244C590.498 136.155 588.174 128.594 588.174 119.614C588.174 110.635 590.498 102.601 595.147 95.9849C599.797 88.896 606.189 83.6975 614.325 79.4442C622.461 75.1909 631.759 73.3005 642.219 73.3005C652.68 73.3005 661.978 75.1909 670.114 79.4442C678.25 83.6975 684.642 88.896 689.291 95.9849C693.94 103.074 696.265 111.108 696.265 119.614C696.265 128.594 693.94 136.628 689.291 143.244C684.642 150.333 678.25 155.531 670.114 159.784C661.978 164.038 652.68 165.928 642.219 165.928ZM642.219 142.771C646.868 142.771 650.936 141.826 654.423 139.936C657.91 138.045 660.816 135.21 662.559 131.902C664.302 128.594 665.465 124.34 665.465 120.087C665.465 115.834 664.884 111.58 662.559 108.272C660.816 104.964 657.91 102.129 654.423 99.7656C650.936 97.8752 646.868 96.93 642.219 96.93C637.57 96.93 633.502 97.8752 630.016 99.7656C626.529 101.656 623.623 104.491 621.88 108.272C620.136 111.58 618.974 115.834 618.974 120.087C618.974 124.34 619.555 128.594 621.88 131.902C623.623 135.21 626.529 138.045 630.016 139.936C633.502 141.826 637.57 142.771 642.219 142.771Z" fill="#164063"/>
<path d="M716.023 164.51V75.1909H744.499L745.661 93.1493L739.85 95.0397C741.012 90.7864 743.918 87.4782 747.405 84.1701C750.892 80.862 755.541 78.0265 760.19 76.1361C764.839 74.2457 770.65 73.3005 775.88 73.3005C783.435 73.3005 789.828 74.7183 795.058 77.5538C800.288 80.3894 804.356 84.1701 806.68 89.8412C809.586 95.0397 810.748 102.128 810.748 109.69V164.51H780.529V112.053C780.529 108.272 779.948 105.437 778.786 103.074C777.624 100.711 775.88 98.8204 773.556 97.8752C771.231 96.93 768.326 95.9848 764.839 96.4574C761.933 96.4574 759.609 96.9301 757.284 97.4026C754.959 98.3478 753.216 99.293 751.473 100.711C749.729 102.129 748.567 103.546 747.405 105.437C746.242 107.327 746.242 109.217 746.242 111.108V164.51H731.133C727.646 164.51 724.74 164.51 721.835 164.51C719.51 164.51 717.767 164.51 716.023 164.51Z" fill="#164063"/>
<path d="M835.738 164.51V75.1909H864.214L865.376 93.1493L859.565 95.0397C860.727 90.7864 863.633 87.4782 867.12 84.1701C870.606 80.862 875.255 78.0265 879.904 76.1361C884.554 74.2457 890.365 73.3005 895.595 73.3005C903.15 73.3005 909.542 74.7183 914.773 77.5538C920.003 80.3894 924.071 84.1701 926.395 89.8412C929.301 95.0397 930.463 102.128 930.463 109.69V164.51H900.244V112.053C900.244 108.272 899.663 105.437 898.501 103.074C897.339 100.711 895.595 98.8204 893.271 97.8752C890.946 96.93 888.04 95.9848 884.554 96.4574C881.648 96.4574 879.323 96.9301 876.999 97.4026C874.674 98.3478 872.931 99.293 871.187 100.711C869.444 102.129 868.282 103.546 867.12 105.437C865.957 107.327 865.957 109.217 865.957 111.108V164.51H850.848C847.361 164.51 844.455 164.51 841.55 164.51C839.806 164.51 837.482 164.51 835.738 164.51Z" fill="#164063"/>
<path d="M1003.68 165.928C992.643 165.928 982.764 164.038 974.628 159.784C966.492 156.004 960.099 150.333 955.45 143.716C950.801 136.628 948.477 129.066 948.477 120.087C948.477 113.471 949.639 106.854 951.963 101.183C954.288 95.5122 957.775 90.3138 962.424 86.5331C967.073 82.2798 972.303 78.9716 978.696 76.6087C985.088 74.2457 991.481 73.3005 999.035 73.3005C1006.01 73.3005 1012.4 74.2457 1018.21 76.6087C1024.02 78.9716 1029.25 81.8071 1033.32 86.0604C1037.39 90.3138 1040.88 95.0397 1043.2 100.238C1045.53 105.909 1046.69 111.58 1046.11 118.197V125.285H966.492L962.424 110.163H1022.28L1018.79 113.471V110.163C1018.79 107.327 1017.63 104.964 1015.89 102.601C1014.14 100.238 1011.82 98.8204 1008.91 97.4026C1006.01 95.9849 1003.1 95.5122 999.616 95.5122C994.967 95.5122 990.318 96.4575 986.831 98.3478C983.345 100.238 981.02 102.601 979.277 105.909C977.533 109.217 976.371 113.471 976.371 118.197C976.371 122.922 977.533 127.176 979.858 130.956C982.182 134.737 985.669 137.573 990.318 139.463C994.967 141.353 1000.2 142.299 1006.01 142.299C1010.08 142.299 1014.14 141.826 1017.63 140.408C1021.12 139.463 1024.61 137.573 1028.67 134.737L1042.62 152.696C1038.55 155.531 1034.48 158.367 1030.42 160.257C1025.77 162.147 1021.7 163.565 1017.05 164.51C1012.4 165.456 1008.33 165.928 1003.68 165.928Z" fill="#164063"/>
<path d="M1110.61 165.928C1100.73 165.928 1092.02 164.038 1084.46 159.784C1076.91 155.531 1070.51 150.333 1066.45 143.244C1061.8 136.155 1059.47 128.121 1059.47 119.614C1059.47 110.635 1061.8 103.074 1066.45 95.9849C1071.1 88.896 1076.91 83.6975 1084.46 79.4442C1092.02 75.1909 1100.73 73.3005 1110.61 73.3005C1119.33 73.3005 1128.05 74.7183 1135.02 77.5538C1142.57 80.3894 1148.39 84.1701 1153.04 89.3686L1136.76 106.854C1135.02 104.964 1132.7 103.546 1130.37 101.656C1128.05 100.238 1125.14 98.8204 1122.24 97.8752C1119.33 96.93 1116.42 96.4574 1112.94 96.4574C1108.29 96.4574 1104.22 97.4026 1100.15 99.293C1096.67 101.183 1093.76 104.019 1091.44 107.327C1089.69 110.635 1088.53 114.888 1088.53 119.142C1088.53 123.395 1089.69 127.176 1091.44 130.956C1093.76 134.265 1096.08 137.1 1100.15 138.99C1103.64 140.881 1107.71 141.826 1112.36 141.826C1115.84 141.826 1118.75 141.353 1121.65 140.881C1124.56 139.936 1126.88 138.991 1129.21 137.573C1131.53 136.155 1133.86 134.265 1135.6 132.374L1151.87 149.86C1147.81 154.586 1141.41 158.367 1133.86 161.202C1127.47 164.51 1119.33 165.928 1110.61 165.928Z" fill="#164063"/>
<path d="M1160.01 98.8204V75.1909H1227.42V98.8204H1160.01ZM1177.44 164.51V52.9792H1207.66V164.51H1177.44Z" fill="#164063"/>
<path d="M1228 75.1908H1207.66V98.8203H1228V75.1908Z" fill="#FA7D08"/>
<path d="M762.516 270.37C756.124 270.37 749.731 269.425 744.501 267.535C738.69 265.645 734.04 262.809 729.973 259.028C725.905 255.248 722.999 250.994 720.674 246.268C718.35 241.542 717.188 235.871 717.188 229.728C717.188 224.057 718.35 218.386 720.674 213.66C722.999 208.934 726.486 204.68 730.554 200.9C734.622 197.119 739.852 194.283 745.082 192.393C750.893 190.503 756.705 189.558 763.678 189.558C767.746 189.558 771.814 190.03 775.882 190.975C779.95 191.921 783.437 193.338 786.924 195.229C790.41 197.119 793.316 199.482 795.641 201.845L782.856 215.077C781.112 213.66 779.369 212.242 777.044 210.824C775.301 209.406 772.976 208.461 770.652 207.989C768.327 207.516 766.003 207.043 763.097 207.043C759.61 207.043 756.705 207.516 753.799 208.461C750.893 209.406 747.988 211.297 746.244 213.187C743.92 215.077 742.176 217.44 741.014 220.276C739.852 223.111 739.271 226.42 739.271 229.728C739.271 233.036 739.852 236.344 741.014 239.18C742.176 242.015 743.92 244.378 746.244 246.268C748.569 248.159 751.474 249.577 754.38 250.994C757.867 251.939 761.354 252.412 764.841 252.412C767.746 252.412 770.071 251.939 772.395 251.467C774.72 250.994 777.044 250.049 779.369 248.631C781.694 247.686 783.437 246.268 784.599 244.851L795.06 259.501C792.735 261.391 790.41 263.282 786.924 265.172C783.437 266.59 779.369 268.007 775.301 268.953C771.233 269.898 766.584 270.37 762.516 270.37Z" fill="#FA7D08"/>
<path d="M831.669 270.37C825.858 270.37 821.209 268.953 816.56 266.59C811.911 263.754 808.424 260.446 806.099 255.72C803.775 250.994 802.031 245.796 802.031 240.125C802.031 233.981 803.194 228.783 806.099 224.057C808.424 219.331 812.492 216.023 816.56 213.187C821.209 210.352 826.439 209.406 832.25 209.406C835.156 209.406 838.062 209.879 840.967 210.824C843.873 211.769 846.197 212.715 847.941 214.132C849.684 215.55 851.428 217.44 853.171 219.331C854.333 221.221 855.496 223.111 856.077 225.474L852.009 225.002V210.824H871.767V269.898H851.428V255.72H856.077C855.496 257.611 854.333 259.973 852.59 261.391C850.847 263.282 849.103 264.699 847.36 266.117C845.035 267.535 842.711 268.48 839.805 269.425C837.48 269.898 834.575 270.37 831.669 270.37ZM837.48 255.248C840.386 255.248 843.292 254.775 845.616 253.357C847.941 251.939 849.684 250.522 850.847 248.159C852.009 245.796 852.59 242.96 852.59 239.652C852.59 236.344 852.009 233.508 850.847 231.145C849.684 228.783 847.941 226.892 845.616 225.474C843.292 224.057 840.967 223.584 837.48 223.584C834.575 223.584 831.669 224.057 829.926 225.474C827.601 226.892 825.858 228.783 824.695 231.145C823.533 233.508 822.952 236.344 822.952 239.652C822.952 242.96 823.533 245.796 824.695 248.159C825.858 250.522 827.601 252.412 829.926 253.357C831.669 254.775 833.994 255.248 837.48 255.248Z" fill="#FA7D08"/>
<path d="M889.783 294V210.352H908.961L909.542 223.584L906.055 222.639C906.636 220.276 907.798 217.913 910.123 216.023C912.447 214.132 915.353 212.242 918.84 211.297C922.327 209.879 925.814 209.406 929.881 209.406C935.693 209.406 940.342 210.824 944.991 213.187C949.64 216.023 953.127 219.331 955.451 224.057C957.776 228.783 959.519 233.981 959.519 240.125C959.519 246.268 958.357 251.467 955.451 255.72C953.127 260.446 949.64 263.754 944.991 266.59C940.342 269.425 935.693 270.37 929.881 270.37C926.395 270.37 922.327 269.898 918.84 268.48C915.353 267.062 912.447 265.645 910.123 263.282C907.798 260.919 906.055 258.556 905.474 256.193L910.123 254.775V294H889.783V294ZM924.651 255.248C927.557 255.248 930.463 254.775 932.787 253.357C935.112 251.939 936.855 250.049 938.017 248.159C939.18 245.796 939.761 242.96 939.761 240.125C939.761 236.817 939.18 234.454 938.017 232.091C936.855 229.728 935.112 227.837 932.787 226.42C930.463 225.002 928.138 224.529 924.651 224.529C921.746 224.529 918.84 225.002 916.515 226.42C914.191 227.837 912.447 229.728 911.285 232.091C910.123 234.454 909.542 237.289 909.542 240.125C909.542 243.433 910.123 246.268 911.285 248.159C912.447 250.522 914.191 252.412 916.515 253.357C918.84 254.775 921.164 255.248 924.651 255.248Z" fill="#FA7D08"/>
<path d="M965.912 225.947V210.352H1010.66V225.947H965.912ZM978.116 269.425V195.229H997.875V269.425H978.116Z" fill="#FA7D08"/>
<path d="M1046.69 270.37C1040.88 270.37 1036.23 268.953 1031.59 266.59C1026.94 263.754 1023.45 260.446 1021.12 255.72C1018.8 250.994 1017.06 245.796 1017.06 240.125C1017.06 233.981 1018.22 228.783 1021.12 224.057C1023.45 219.331 1027.52 216.023 1031.59 213.187C1036.23 210.352 1041.46 209.406 1047.28 209.406C1050.18 209.406 1053.09 209.879 1055.99 210.824C1058.9 211.769 1061.22 212.715 1062.97 214.132C1064.71 215.55 1066.45 217.44 1068.2 219.331C1069.36 221.221 1070.52 223.111 1071.1 225.474L1067.03 225.002V210.824H1086.79V269.898H1066.45V255.72H1071.1C1070.52 257.611 1069.36 259.973 1067.62 261.391C1065.87 263.282 1064.13 264.699 1062.39 266.117C1060.06 267.535 1057.74 268.48 1054.83 269.425C1052.51 269.898 1049.6 270.37 1046.69 270.37ZM1052.51 255.248C1055.41 255.248 1058.32 254.775 1060.64 253.357C1062.97 251.939 1064.71 250.522 1065.87 248.159C1067.03 245.796 1067.62 242.96 1067.62 239.652C1067.62 236.344 1067.03 233.508 1065.87 231.145C1064.71 228.783 1062.97 226.892 1060.64 225.474C1058.32 224.057 1055.99 223.584 1052.51 223.584C1049.6 223.584 1046.69 224.057 1044.95 225.474C1042.63 226.892 1040.88 228.783 1039.72 231.145C1038.56 233.508 1037.98 236.344 1037.98 239.652C1037.98 242.96 1038.56 245.796 1039.72 248.159C1040.88 250.522 1042.63 252.412 1044.95 253.357C1046.69 254.775 1049.02 255.248 1052.51 255.248Z" fill="#FA7D08"/>
<path d="M1115.85 198.537C1112.36 198.537 1108.87 197.592 1107.13 196.174C1104.8 194.756 1104.22 192.393 1104.22 189.558C1104.22 186.722 1105.38 184.832 1107.71 182.941C1110.03 181.051 1112.94 180.578 1116.43 180.578C1119.91 180.578 1123.4 181.524 1125.14 182.941C1127.47 184.359 1128.05 186.722 1128.05 189.558C1128.05 192.393 1126.89 194.756 1125.14 196.174C1122.24 197.592 1119.33 198.537 1115.85 198.537ZM1105.97 269.425V210.352H1126.31V269.425H1105.97Z" fill="#FA7D08"/>
<path d="M1144.9 269.425V210.352H1164.08L1164.66 222.166L1160.59 223.584C1161.75 220.749 1162.92 218.386 1165.82 216.495C1168.15 214.132 1171.05 212.714 1174.54 211.297C1178.03 209.879 1181.51 209.406 1185 209.406C1190.23 209.406 1194.3 210.352 1197.78 212.242C1201.27 214.132 1203.59 216.968 1205.34 220.276C1207.08 224.057 1208.24 228.31 1208.24 233.508V269.898H1187.9V234.926C1187.9 232.563 1187.32 230.673 1186.74 229.255C1186.16 227.837 1185 226.42 1183.26 225.947C1181.51 225.002 1179.77 225.002 1177.44 225.002C1175.7 225.002 1173.96 225.474 1172.79 225.947C1171.05 226.42 1169.89 227.365 1168.73 227.837C1167.56 228.783 1166.98 229.728 1166.4 231.145C1165.82 232.563 1165.24 233.508 1165.24 234.926V270.37H1155.36C1153.04 270.37 1151.29 270.37 1149.55 270.37C1147.22 269.425 1146.06 269.425 1144.9 269.425Z" fill="#FA7D08"/>
<path d="M1115.26 200.9C1122.32 200.9 1128.05 196.245 1128.05 190.503C1128.05 184.761 1122.32 180.106 1115.26 180.106C1108.2 180.106 1102.48 184.761 1102.48 190.503C1102.48 196.245 1108.2 200.9 1115.26 200.9Z" fill="#164063"/>
<path d="M154.521 61.985C162.522 56.7994 206.529 29.8348 243.534 45.3913C263.537 54.2067 274.038 65.0962 274.038 65.0962C287.54 79.0971 293.041 96.2094 302.043 94.6537C304.043 94.1352 306.543 93.098 307.543 91.0238C312.544 82.2084 294.541 60.4293 279.039 47.4655C278.039 46.4284 275.039 44.3542 272.038 42.28C255.536 30.3533 216.53 6.49998 165.023 14.2782C131.018 19.4638 106.014 36.5759 91.0117 49.0212C98.5128 50.0583 106.014 51.6139 113.515 52.651C120.016 46.947 128.517 40.7243 139.519 35.5388C167.023 22.0565 193.527 23.6122 206.529 25.6864C206.529 25.6864 157.521 30.8719 125.517 55.2438L154.521 61.985Z" fill="#164063"/>
<path d="M155.025 6.49985C168.027 4.42565 188.03 2.86998 211.534 7.53694C224.536 10.1297 260.541 17.3894 292.045 48.5025C302.547 58.8735 319.549 77.0228 326.55 105.025C331.551 125.248 330.551 147.546 342.053 151.694C342.553 151.694 347.554 153.768 350.554 151.176C361.556 142.36 345.553 87.3939 312.048 50.5767C285.544 21.5378 254.54 10.1297 240.038 5.98127C217.535 -0.759899 198.032 -0.24138 191.031 0.277172C176.028 0.795723 164.027 3.38854 155.025 6.49985Z" fill="#164063"/>
<path d="M70.0105 80.6526C75.0112 81.6898 79.5119 82.7269 84.5126 83.764C78.5117 94.135 71.5107 110.729 69.5104 130.952C64.5097 181.252 92.0137 218.587 99.5148 227.921C99.5148 227.921 87.013 211.328 81.0121 185.4C71.0106 141.323 87.5131 103.469 95.5142 86.8753C105.016 89.9866 114.017 92.5794 123.518 95.6907C117.017 108.136 101.515 141.323 110.516 180.215C123.018 234.662 174.026 270.443 214.032 270.961C252.037 271.48 273.54 269.405 286.542 263.183C286.542 263.183 210.031 324.372 120.018 273.035C110.016 265.776 74.5112 237.774 61.5093 185.4C48.5074 134.064 65.0098 92.5793 70.0105 80.6526Z" fill="#164063"/>
<path d="M259.04 189.03C266.041 191.623 265.541 191.104 266.041 191.623C298.546 204.587 317.048 222.736 317.048 222.736C329.05 234.663 337.551 247.626 340.552 257.479C342.052 261.109 343.052 265.776 343.052 265.776C345.552 274.073 346.553 280.814 347.553 285.481C351.053 295.333 350.553 297.926 349.553 298.444C348.053 299.482 345.552 297.926 329.55 284.444C321.549 278.221 317.548 275.11 316.548 273.554C314.548 270.443 311.547 265.257 305.046 257.479C283.543 227.922 292.545 223.255 278.543 212.883C268.041 205.105 240.537 192.141 232.536 190.067C225.035 187.993 232.036 190.067 232.036 190.067L227.535 189.549C229.535 187.474 232.536 185.4 237.537 183.845C241.537 182.289 244.538 183.326 259.04 189.03Z" fill="#FA7D08"/>
<path d="M20.502 73.3926C20.502 72.8741 23.5024 72.3555 23.5024 72.3555C30.5034 70.7999 41.0049 69.2442 53.5068 68.2071C61.5079 67.6885 87.0117 66.1329 119.516 72.3555C135.519 75.4668 144.02 77.0224 150.021 83.245C154.522 87.3935 160.022 95.1718 169.024 107.617C176.525 117.988 177.025 120.062 183.526 128.878C195.528 145.471 201.528 153.768 207.029 156.361C221.531 164.139 233.533 157.916 243.535 169.325C246.035 171.917 247.035 174.51 248.035 176.584C248.035 176.584 237.034 174.51 209.53 184.363C209.53 184.363 201.528 187.992 178.025 176.584C170.524 171.917 165.523 172.436 162.023 173.473C156.522 175.547 150.021 183.326 148.521 182.288L148.021 181.77L148.521 182.288C148.521 182.288 147.521 181.77 146.02 181.77C142.52 179.177 139.019 176.584 135.519 173.473C129.018 167.769 123.517 161.546 119.516 156.361C119.516 156.361 113.516 139.767 114.016 133.545C114.016 133.545 130.518 154.287 145.02 155.842C159.522 157.398 165.023 159.472 167.023 152.212C170.524 140.286 157.522 123.174 148.021 110.728C140.019 100.876 136.019 95.6903 130.518 91.5419C123.517 85.8378 113.015 80.1338 91.0122 75.9854C53.5068 68.7256 21.002 74.9483 20.502 73.3926Z" fill="#FA7D08"/>
<path d="M4 76.5045C4 76.5045 42.0056 68.7262 77.5107 73.3932C112.516 78.5787 131.019 85.8384 141.52 101.395C152.022 116.951 180.026 152.213 161.023 155.843C142.02 159.991 119.017 138.731 115.516 133.545L114.016 130.952C114.016 130.952 111.516 145.99 121.517 157.917C131.519 169.844 148.021 181.252 148.021 181.252C148.021 181.252 161.523 167.251 172.525 172.955C183.526 178.659 198.028 189.03 219.532 180.215C241.035 171.399 252.036 176.585 252.036 176.585C252.036 176.585 250.036 157.399 230.533 149.62C211.03 141.842 212.03 149.102 199.529 127.841C187.527 107.099 169.024 85.3199 156.022 75.986C145.021 68.7262 134.019 66.652 111.016 62.5036C95.5134 59.9108 71.5099 55.7624 42.0055 62.5036C25.5031 66.652 12.5012 72.3561 4 76.5045Z" stroke="#164063" stroke-miterlimit="10"/>
<path d="M256.535 171.399C256.535 171.399 265.537 185.919 266.537 193.697C266.537 193.697 245.034 176.585 232.032 185.4L228.531 188.511C228.531 188.511 276.038 200.957 287.54 223.773C299.042 246.589 311.043 272.517 329.546 284.962C348.049 297.407 351.049 300 351.049 300C351.049 300 338.547 230.514 327.046 217.032C318.044 206.142 298.541 204.068 271.037 183.326C264.537 178.14 259.536 173.992 256.535 171.399Z" stroke="#164063" stroke-miterlimit="10"/>
</svg>
